<mxfile host="app.diagrams.net" modified="2023-10-31T13:01:13.907Z" agent="Mozilla/5.0 (Windows NT 10.0; Win64; x64) AppleWebKit/537.36 (KHTML, like Gecko) Chrome/118.0.0.0 Safari/537.36" version="22.0.8" etag="Jsa35NDbhmPAWZ5LM5Wm" type="github">
  <diagram name="Trang-1" id="WXJiSigCH3cRluKzmYcE">
    <mxGraphModel>
      <root>
        <mxCell id="0" />
        <mxCell id="1" parent="0" />
      </root>
    </mxGraphModel>
  </diagram>
</mxfile>
